<svg xmlns="http://www.w3.org/2000/svg" fill="none" viewBox="-0.835 -0.835 40 40" id="Temperature-Celsius--Streamline-Ultimate" height="40" width="40">
  <desc>
    Temperature Celsius Streamline Icon: https://streamlinehq.com
  </desc>
  <path fill="#fff9bf" d="M19.164840291666668 36.69219104166667c9.691421083333333 0 17.547633708333333 -7.856212625 17.547633708333333 -17.547633708333333C36.71247400000001 9.453391783333334 28.856261375000003 1.5970833333333334 19.164840291666668 1.5970833333333334 9.473674741666668 1.5970833333333334 1.6173662916666667 9.453391783333334 1.6173662916666667 19.144557333333335c0 9.691421083333333 7.85630845 17.547633708333333 17.547474 17.547633708333333Z" stroke-width="1.67"></path>
  <path fill="#ffef5e" d="M19.164840291666668 29.062764249999997c-3.9894502833333334 -0.0020762083333333336 -7.8591832 -1.3634300416666667 -10.971116045833334 -3.8599907083333336 -3.1119488166666667 -2.4964009583333335 -5.280308858333334 -5.978681458333334 -6.147588991666667 -9.872833779166667 -0.5782623508333333 2.5676149041666667 -0.57154342125 5.232348445833334 0.019660095833333335 7.7971045708333335 0.5912083083333334 2.564596416666667 1.7517289125 4.963415583333334 3.3956706708333337 7.018702125000001 1.6439257875000002 2.055286541666667 3.7291576416666667 3.714496416666667 6.1012256625 4.854813916666667C13.934791645833332 36.140877875 16.532846958333334 36.73291666666667 19.164840291666668 36.73291666666667c2.6319933333333334 0 5.2301285 -0.5920387916666666 7.602276375000001 -1.7323562916666668 2.372147875 -1.1403175 4.457299875 -2.799527375 6.10117775 -4.854813916666667 1.6440375833333336 -2.055286541666667 2.8046380416666667 -4.4541057083333335 3.395718583333333 -7.018702125000001 0.59124025 -2.564756125 0.597948 -5.229489666666667 0.019644125000000002 -7.7971045708333335 -0.8672162500000001 3.8941523208333333 -3.035576291666667 7.376432820833334 -6.147493166666667 9.872833779166667 -3.111916875 2.496560666666667 -6.981649791666667 3.8579145 -10.971323666666667 3.8599907083333336Z" stroke-width="1.67"></path>
  <path stroke="#191919" stroke-linecap="round" stroke-linejoin="round" d="M19.164840291666668 36.69219104166667c9.691421083333333 0 17.547633708333333 -7.856212625 17.547633708333333 -17.547633708333333C36.71247400000001 9.453391783333334 28.856261375000003 1.5970833333333334 19.164840291666668 1.5970833333333334 9.473674741666668 1.5970833333333334 1.6173662916666667 9.453391783333334 1.6173662916666667 19.144557333333335c0 9.691421083333333 7.85630845 17.547633708333333 17.547474 17.547633708333333Z" stroke-width="1.67"></path>
  <path stroke="#191919" stroke-linecap="round" stroke-linejoin="round" d="M22.369228291666666 27.86495175c-1.5041330833333333 0.8148319166666667 -3.1932084166666668 1.2268794166666668 -4.90336525 1.1960557083333334 -1.7103644541666667 -0.03098341666666667 -3.3835807499999997 -0.5035603750000001 -4.857209541666667 -1.3720542916666667 -1.4736287916666666 -0.8684939166666666 -2.697569575 -2.1035184583333333 -3.5529674083333336 -3.5848132500000003 -0.8553818625 -1.4812947916666668 -1.3131219166666668 -3.1587114166666668 -1.3287573625 -4.869187666666667 -0.015635445833333334 -1.7103165416666668 0.41136075416666673 -3.395814408333333 1.2395283166666669 -4.892505083333334 0.8281515916666667 -1.4967066458333336 2.0293339375 -2.753754966666667 3.4868321875000006 -3.6490958541666667 1.45749825 -0.8953408875000002 3.12178685 -1.3985019916666668 4.831145141666666 -1.4606125625 1.709518 -0.06212654166666667 3.4057802083333333 0.3189056 4.924606458333334 1.1060760333333333" stroke-width="1.67"></path>
  <path fill="#ffffff" stroke="#191919" stroke-linecap="round" stroke-linejoin="round" d="M27.557513208333333 16.0928505c1.2640914583333334 0 2.288780125 -1.0247046375000002 2.288780125 -2.2887960958333338 0 -1.2640754875000002 -1.0246886666666666 -2.2888120666666665 -2.288780125 -2.2888120666666665 -1.2640914583333334 0 -2.288780125 1.0247365791666667 -2.288780125 2.2888120666666665 0 1.2640914583333334 1.0246886666666666 2.2887960958333338 2.288780125 2.2887960958333338Z" stroke-width="1.67"></path>
</svg>